<mxfile host="app.diagrams.net" modified="2022-11-19T10:42:29.452Z" agent="5.0 (Macintosh; Intel Mac OS X 10_15_7) AppleWebKit/537.36 (KHTML, like Gecko) Chrome/107.0.0.0 Safari/537.36" etag="1xj8b0RAPOw53o5wXAUT" version="20.5.3" type="github">
  <diagram id="prtHgNgQTEPvFCAcTncT" name="Page-1">
    <mxGraphModel dx="1426" dy="666" grid="1" gridSize="10" guides="1" tooltips="1" connect="1" arrows="1" fold="1" page="1" pageScale="1" pageWidth="827" pageHeight="1169" math="0" shadow="0">
      <root>
        <mxCell id="0" />
        <mxCell id="1" parent="0" />
        <mxCell id="9oMfh6OFCTekuu4e5tlx-1" value="" style="rounded=0;whiteSpace=wrap;html=1;" vertex="1" parent="1">
          <mxGeometry x="130" y="20" width="520" height="310" as="geometry" />
        </mxCell>
        <mxCell id="9oMfh6OFCTekuu4e5tlx-18" value="&lt;span data-darkreader-inline-color=&quot;&quot; style=&quot;color: rgba(0, 0, 0, 0); font-family: monospace; font-size: 0px; text-align: start; --darkreader-inline-color:rgba(32, 31, 30, 0);&quot;&gt;%3CmxGraphModel%3E%3Croot%3E%3CmxCell%20id%3D%220%22%2F%3E%3CmxCell%20id%3D%221%22%20parent%3D%220%22%2F%3E%3CmxCell%20id%3D%222%22%20value%3D%22Controller%22%20style%3D%22text%3Bhtml%3D1%3BstrokeColor%3D%23d79b00%3BfillColor%3D%23ffe6cc%3Balign%3Dcenter%3BverticalAlign%3Dmiddle%3BwhiteSpace%3Dwrap%3Brounded%3D0%3BlabelBackgroundColor%3Dnone%3BlabelBorderColor%3Dnone%3B%22%20vertex%3D%221%22%20parent%3D%221%22%3E%3CmxGeometry%20x%3D%22170%22%20y%3D%22600%22%20width%3D%2260%22%20height%3D%2230%22%20as%3D%22geometry%22%2F%3E%3C%2FmxCell%3E%3C%2Froot%3E%3C%2FmxGraphModel%3E&lt;/span&gt;" style="rounded=0;whiteSpace=wrap;html=1;" vertex="1" parent="1">
          <mxGeometry x="140" y="65" width="490" height="245" as="geometry" />
        </mxCell>
        <mxCell id="9oMfh6OFCTekuu4e5tlx-19" value="NameSpace" style="text;html=1;strokeColor=#d79b00;fillColor=#ffe6cc;align=center;verticalAlign=middle;whiteSpace=wrap;rounded=0;labelBackgroundColor=none;labelBorderColor=none;" vertex="1" parent="1">
          <mxGeometry x="140" y="65" width="80" height="30" as="geometry" />
        </mxCell>
        <mxCell id="9oMfh6OFCTekuu4e5tlx-6" value="" style="rounded=0;whiteSpace=wrap;html=1;" vertex="1" parent="1">
          <mxGeometry x="390" y="110" width="220" height="180" as="geometry" />
        </mxCell>
        <mxCell id="9oMfh6OFCTekuu4e5tlx-8" value="Pod" style="rounded=0;whiteSpace=wrap;html=1;" vertex="1" parent="1">
          <mxGeometry x="410" y="150" width="140" height="40" as="geometry" />
        </mxCell>
        <mxCell id="9oMfh6OFCTekuu4e5tlx-10" value="Pod" style="rounded=0;whiteSpace=wrap;html=1;" vertex="1" parent="1">
          <mxGeometry x="420" y="160" width="140" height="40" as="geometry" />
        </mxCell>
        <mxCell id="9oMfh6OFCTekuu4e5tlx-11" value="Pods" style="rounded=0;whiteSpace=wrap;html=1;" vertex="1" parent="1">
          <mxGeometry x="430" y="170" width="140" height="40" as="geometry" />
        </mxCell>
        <mxCell id="9oMfh6OFCTekuu4e5tlx-24" style="edgeStyle=orthogonalEdgeStyle;rounded=0;orthogonalLoop=1;jettySize=auto;html=1;exitX=0.5;exitY=0;exitDx=0;exitDy=0;" edge="1" parent="1" source="9oMfh6OFCTekuu4e5tlx-14" target="9oMfh6OFCTekuu4e5tlx-11">
          <mxGeometry relative="1" as="geometry">
            <Array as="points">
              <mxPoint x="440" y="230" />
              <mxPoint x="500" y="230" />
            </Array>
          </mxGeometry>
        </mxCell>
        <mxCell id="9oMfh6OFCTekuu4e5tlx-14" value="Controller" style="text;html=1;strokeColor=#d79b00;fillColor=#ffe6cc;align=center;verticalAlign=middle;whiteSpace=wrap;rounded=0;labelBackgroundColor=none;labelBorderColor=none;" vertex="1" parent="1">
          <mxGeometry x="410" y="242.5" width="60" height="30" as="geometry" />
        </mxCell>
        <mxCell id="9oMfh6OFCTekuu4e5tlx-26" style="edgeStyle=orthogonalEdgeStyle;rounded=0;orthogonalLoop=1;jettySize=auto;html=1;exitX=0.5;exitY=0;exitDx=0;exitDy=0;entryX=0.5;entryY=1;entryDx=0;entryDy=0;" edge="1" parent="1" source="9oMfh6OFCTekuu4e5tlx-17" target="9oMfh6OFCTekuu4e5tlx-11">
          <mxGeometry relative="1" as="geometry">
            <Array as="points">
              <mxPoint x="560" y="230" />
              <mxPoint x="500" y="230" />
            </Array>
          </mxGeometry>
        </mxCell>
        <mxCell id="9oMfh6OFCTekuu4e5tlx-17" value="Service" style="text;html=1;strokeColor=#d79b00;fillColor=#ffe6cc;align=center;verticalAlign=middle;whiteSpace=wrap;rounded=0;labelBackgroundColor=none;labelBorderColor=none;" vertex="1" parent="1">
          <mxGeometry x="525" y="242.5" width="70" height="30" as="geometry" />
        </mxCell>
        <mxCell id="9oMfh6OFCTekuu4e5tlx-20" value="Cluster" style="text;html=1;strokeColor=#d79b00;fillColor=#ffe6cc;align=center;verticalAlign=middle;whiteSpace=wrap;rounded=0;labelBackgroundColor=none;labelBorderColor=none;" vertex="1" parent="1">
          <mxGeometry x="130" y="20" width="80" height="30" as="geometry" />
        </mxCell>
        <mxCell id="9oMfh6OFCTekuu4e5tlx-23" value="Node" style="text;html=1;strokeColor=#d79b00;fillColor=#ffe6cc;align=center;verticalAlign=middle;whiteSpace=wrap;rounded=0;labelBackgroundColor=none;labelBorderColor=none;" vertex="1" parent="1">
          <mxGeometry x="390" y="110" width="80" height="30" as="geometry" />
        </mxCell>
        <mxCell id="9oMfh6OFCTekuu4e5tlx-27" value="" style="rounded=0;whiteSpace=wrap;html=1;" vertex="1" parent="1">
          <mxGeometry x="150" y="110" width="210" height="180" as="geometry" />
        </mxCell>
        <mxCell id="9oMfh6OFCTekuu4e5tlx-28" value="Pod" style="rounded=0;whiteSpace=wrap;html=1;" vertex="1" parent="1">
          <mxGeometry x="160" y="150" width="140" height="40" as="geometry" />
        </mxCell>
        <mxCell id="9oMfh6OFCTekuu4e5tlx-29" value="Pod" style="rounded=0;whiteSpace=wrap;html=1;" vertex="1" parent="1">
          <mxGeometry x="170" y="160" width="140" height="40" as="geometry" />
        </mxCell>
        <mxCell id="9oMfh6OFCTekuu4e5tlx-30" value="Pods" style="rounded=0;whiteSpace=wrap;html=1;" vertex="1" parent="1">
          <mxGeometry x="180" y="170" width="140" height="40" as="geometry" />
        </mxCell>
        <mxCell id="9oMfh6OFCTekuu4e5tlx-33" style="edgeStyle=orthogonalEdgeStyle;rounded=0;orthogonalLoop=1;jettySize=auto;html=1;exitX=0.5;exitY=0;exitDx=0;exitDy=0;" edge="1" parent="1" source="9oMfh6OFCTekuu4e5tlx-31" target="9oMfh6OFCTekuu4e5tlx-30">
          <mxGeometry relative="1" as="geometry">
            <Array as="points">
              <mxPoint x="190" y="230" />
              <mxPoint x="250" y="230" />
            </Array>
          </mxGeometry>
        </mxCell>
        <mxCell id="9oMfh6OFCTekuu4e5tlx-31" value="Controller" style="text;html=1;strokeColor=#d79b00;fillColor=#ffe6cc;align=center;verticalAlign=middle;whiteSpace=wrap;rounded=0;labelBackgroundColor=none;labelBorderColor=none;" vertex="1" parent="1">
          <mxGeometry x="160" y="242.5" width="60" height="30" as="geometry" />
        </mxCell>
        <mxCell id="9oMfh6OFCTekuu4e5tlx-36" style="edgeStyle=orthogonalEdgeStyle;rounded=0;orthogonalLoop=1;jettySize=auto;html=1;exitX=0.5;exitY=0;exitDx=0;exitDy=0;entryX=0.5;entryY=1;entryDx=0;entryDy=0;" edge="1" parent="1" source="9oMfh6OFCTekuu4e5tlx-32" target="9oMfh6OFCTekuu4e5tlx-30">
          <mxGeometry relative="1" as="geometry">
            <Array as="points">
              <mxPoint x="310" y="230" />
              <mxPoint x="250" y="230" />
            </Array>
          </mxGeometry>
        </mxCell>
        <mxCell id="9oMfh6OFCTekuu4e5tlx-32" value="Service" style="text;html=1;strokeColor=#d79b00;fillColor=#ffe6cc;align=center;verticalAlign=middle;whiteSpace=wrap;rounded=0;labelBackgroundColor=none;labelBorderColor=none;" vertex="1" parent="1">
          <mxGeometry x="275" y="242.5" width="70" height="30" as="geometry" />
        </mxCell>
        <mxCell id="9oMfh6OFCTekuu4e5tlx-22" value="Master" style="text;html=1;strokeColor=#d79b00;fillColor=#ffe6cc;align=center;verticalAlign=middle;whiteSpace=wrap;rounded=0;labelBackgroundColor=none;labelBorderColor=none;" vertex="1" parent="1">
          <mxGeometry x="150" y="110" width="80" height="30" as="geometry" />
        </mxCell>
      </root>
    </mxGraphModel>
  </diagram>
</mxfile>
